<svg id="frame-1597880373" xmlns="http://www.w3.org/2000/svg"
    xmlns:xlink="http://www.w3.org/1999/xlink" viewBox="0 0 775 626"
    shape-rendering="geometricPrecision" text-rendering="geometricPrecision">
    <style><![CDATA[
        .active #animated_bg {
            animation: animated_bg__sz 4166.666666666667ms linear 1 normal forwards}@keyframes animated_bg__sz { 0% {width: 757px;height: 465px} 100% {width: 50px;height: 465px}} .active #mark {animation: mark_c_o 4166.666666666667ms linear 1 normal forwards}@keyframes mark_c_o { 0% {opacity: 0} 56% {opacity: 0} 66% {opacity: 1} 100% {opacity: 1}} .active #label {animation: label__tr 4166.666666666667ms linear 1 normal forwards}@keyframes label__tr { 0% {transform: translate(404.5px,166px) rotate(15deg)} 56% {transform: translate(404.5px,166px) rotate(15deg)} 66% {transform: translate(404.5px,166px) rotate(-15deg)} 76% {transform: translate(404.5px,166px) rotate(15deg)} 86% {transform: translate(404.5px,166px) rotate(0deg)} 100% {transform: translate(404.5px,166px) rotate(0deg)}} .active #indicator {animation: indicator__to 4166.666666666667ms linear 1 normal forwards}@keyframes indicator__to { 0% {offset-distance: 0%} 3.6% {offset-distance: 3.621216%} 8.8% {offset-distance: 6.047655%} 13.6% {offset-distance: 12.183222%} 15.6% {offset-distance: 14.218614%} 19.6% {offset-distance: 18.378739%} 24.2% {offset-distance: 22.740313%} 26% {offset-distance: 24.987479%} 27.6% {offset-distance: 27.930019%} 31.6% {offset-distance: 30.785408%} 33.2% {offset-distance: 33.173143%} 36% {offset-distance: 36.040149%} 38.8% {offset-distance: 38.084689%} 40% {offset-distance: 40.460728%} 42.8% {offset-distance: 41.897398%} 45.8% {offset-distance: 44.568742%} 47.4% {offset-distance: 48.281521%} 50.4% {offset-distance: 50.419299%} 52% {offset-distance: 53.173362%} 56% {offset-distance: 57.380042%} 64% {offset-distance: 67.908347%} 66% {offset-distance: 70.33006%} 69.2% {offset-distance: 73.161508%} 71.2% {offset-distance: 74.895811%} 73.2% {offset-distance: 77.459997%} 76% {offset-distance: 79.069568%} 78.6% {offset-distance: 81.84265%} 80.4% {offset-distance: 85.100217%} 82.8% {offset-distance: 87.026093%} 86.6% {offset-distance: 92.034707%} 88.6% {offset-distance: 97.268816%} 90.8% {offset-distance: 100%} 100% {offset-distance: 100%}}
]]></style>
    <defs>
        <linearGradient id="frame-1597880373-u-bg-fill" x1="347.75" y1="39.5" x2="347.75" y2="370.5"
            spreadMethod="pad" gradientUnits="userSpaceOnUse" gradientTransform="translate(0 0)">
            <stop id="frame-1597880373-u-bg-fill-0" offset="0%" stop-color="rgba(255,255,255,0.25)" />
            <stop id="frame-1597880373-u-bg-fill-1" offset="100%" stop-color="rgba(255,255,255,0)" />
        </linearGradient>
        <linearGradient id="frame-1597880373-u-line-stroke" x1="649" y1="40" x2="40" y2="349"
            spreadMethod="pad" gradientUnits="userSpaceOnUse" gradientTransform="translate(0 0)">
            <stop id="frame-1597880373-u-line-stroke-0" offset="0%" stop-color="#fff" />
            <stop id="frame-1597880373-u-line-stroke-1" offset="100%" stop-color="#282a35" />
        </linearGradient>
    </defs>
    <rect id="frame-1597880373-s-rect1" width="775" height="465" rx="20" ry="20" fill="#161616" />
    <path id="frame-1597880373-u-bg"
        d="M61.5,326c-8.8-8.4-18,12.167-21.5,23.5v21h615.5v-331h-6c-3.5,1.5-15,0-18,18-1.6,12.4-6.583,40.5-13,51.5-3.5,6-17.763,32-25,44.5-4.4,7.6-13,6.5-17,3.5-4.324-3.243-13.833-19.167-17.5-28-6.8-20.4-14.5-19.833-17.5-17-5.6,6.4-12,3.333-14.5,1-15-17.5-15.5-15-20-15-6-.5-11.333-6.5-14-10-10.4-15.6-18.667-6.5-21.5,0-5.2,16.8-11.833,18.667-14.5,17.5-10.4-6.8-15.667,5.833-17,13l-.015.073C438.323,126.886,425.402,191.5,400,191.5c-12.5,0-21.5-21-24-32.5-4.219-19.406-6.5,9-17.5,5-12-9.5-15.167-2.833-17,2-4.4,23.6-9.167,33.833-11,36-3.6,4.4-11.5-.833-15-4-3-2-7.5,3.5-11,9-2.8,4.4-10.167,2.5-13.5,1-6-1.6-11.167,11.667-13,18.5-4.4,11.2-12.167,4.667-15.5,0-9.2-11.2-17.167,2.333-20,10.5-4.8,12-11.667,17.667-14.5,19-12,4-18.441-8.5-21.5-15-8-17-14.5-4-19,5-1.5,3-8.499,13.998-11.999,19.499l-.001.001c-7.636,12-21-10.5-29.5-24.5-13.5-23.5-25.5-6.667-28.5,4.5-2.284,8.5-10.5,7-17,9.5-9.101,3.5-19.5,37.833-24.5,56.5-6.4,19.2-12.3333,17.666-14.5,14.5Z"
        fill="url(#frame-1597880373-u-bg-fill)" />
    <path id="frame-1597880373-u-line"
        d="M40,349.5c3.5-11.333,12.7-31.9,21.5-23.5c2.1667,3.166,8.1,4.7,14.5-14.5c5-18.667,15.399-53,24.5-56.5c6.5-2.5,14.716-1,17-9.5c3-11.167,15-28,28.5-4.5c8.5,14,21.864,36.5,29.5,24.5C179,260,186,249,187.5,246c4.5-9,11-22,19-5c3.059,6.5,9.5,19,21.5,15c2.833-1.333,9.7-7,14.5-19c2.833-8.167,10.8-21.7,20-10.5c3.333,4.667,11.1,11.2,15.5,0c1.833-6.833,7-20.1,13-18.5c3.333,1.5,10.7,3.4,13.5-1c3.5-5.5,8-11,11-9c3.5,3.167,11.4,8.4,15,4c1.833-2.167,6.6-12.4,11-36c1.833-4.833,5-11.5,17-2c11,4,13.281-24.406,17.5-5c2.5,11.5,11.5,32.5,24,32.5c25.478,0,38.4-65,40-73c1.333-7.167,6.6-19.8,17-13c2.667,1.167,9.3-.7,14.5-17.5c2.833-6.5,11.1-15.6,21.5,0c2.667,3.5,8,9.5,14,10c4.5,0,5-2.5,20,15c2.5,2.333,8.9,5.4,14.5-1c3-2.833,10.7-3.4,17.5,17c3.667,8.833,13.176,24.757,17.5,28c4,3,12.6,4.1,17-3.5c7.237-12.5,21.5-38.5,25-44.5c6.417-11,11.4-39.1,13-51.5c3-18,14.5-16.5,18-18"
        fill="none" stroke="url(#frame-1597880373-u-line-stroke)" stroke-width="3" />
    <rect id="animated_bg" width="757" height="465" rx="20" ry="20"
        transform="matrix(-1 0 0 0.901453 763.488 22.912178)" fill="#161616" />
    <g id="frame-1597880373-s-g1">
        <line id="frame-1597880373-s-line1" x1="39.5" y1="371" x2="39.5" y2="42" fill="none"
            stroke="#21232c" />
        <line id="frame-1597880373-s-line2" x1="40" y1="39" x2="656" y2="39" fill="none"
            stroke="#21232c" stroke-width="2" stroke-dasharray="7,7" />
        <line id="frame-1597880373-s-line3" x1="95.5" y1="371" x2="95.5" y2="42" fill="none"
            stroke="#21232c" />
        <line id="frame-1597880373-s-line4" x1="151.5" y1="371" x2="151.5" y2="42" fill="none"
            stroke="#21232c" />
        <line id="frame-1597880373-s-line5" x1="207.5" y1="371" x2="207.5" y2="42" fill="none"
            stroke="#21232c" />
        <line id="frame-1597880373-s-line6" x1="263.5" y1="371" x2="263.5" y2="42" fill="none"
            stroke="#21232c" />
        <line id="frame-1597880373-s-line7" x1="319.5" y1="371" x2="319.5" y2="42" fill="none"
            stroke="#21232c" />
        <line id="frame-1597880373-s-line8" x1="375.5" y1="371" x2="375.5" y2="42" fill="none"
            stroke="#21232c" />
        <line id="frame-1597880373-s-line9" x1="431.5" y1="371" x2="431.5" y2="42" fill="none"
            stroke="#21232c" />
        <line id="frame-1597880373-s-line10" x1="487.5" y1="371" x2="487.5" y2="42" fill="none"
            stroke="#21232c" />
        <line id="frame-1597880373-s-line11" x1="543.5" y1="371" x2="543.5" y2="42" fill="none"
            stroke="#21232c" />
        <line id="frame-1597880373-s-line12" x1="599.5" y1="371" x2="599.5" y2="42" fill="none"
            stroke="#21232c" />
        <line id="frame-1597880373-s-line13" x1="655.5" y1="371" x2="655.5" y2="42" fill="none"
            stroke="#21232c" />
    </g>
    <g id="frame-1597880373-u-months">
        <path id="frame-1597880373-s-path1"
            d="M52.896,401.4v14.98c0,1.512-.392,2.66-1.176,3.444s-1.932,1.176-3.444,1.176h-2.548v-2.296h2.24c.868,0,1.512-.196,1.904-.588s.588-1.036.588-1.932v-14.784h2.436Zm16.8171,17.5v2.1h-1.26c-.924,0-1.568-.168-1.96-.56-.392-.364-.616-.924-.616-1.652-1.12,1.596-2.716,2.38-4.788,2.38-1.596,0-2.884-.364-3.836-1.12-.952-.728-1.428-1.764-1.428-3.052c0-1.428.476-2.52,1.456-3.304.98-.756,2.408-1.148,4.284-1.148h4.2v-.98c0-.924-.336-1.652-.952-2.184-.616-.504-1.484-.784-2.604-.784-1.008,0-1.82.224-2.464.672s-1.036,1.008-1.176,1.736h-2.296c.168-1.4.784-2.492,1.848-3.276s2.464-1.176,4.2-1.176c1.82,0,3.22.448,4.228,1.344s1.512,2.156,1.512,3.808v6.16c0,.7.308,1.036.952,1.036h.7Zm-3.948-4.424h-4.424c-2.128,0-3.192.812-3.192,2.38c0,.728.28,1.288.84,1.708.56.448,1.316.644,2.268.644c1.4,0,2.492-.364,3.304-1.092.784-.728,1.204-1.708,1.204-2.94v-.7Zm16.8851-6.356c1.064,1.064,1.596,2.688,1.596,4.928v7.952h-2.296v-7.812c0-1.456-.336-2.576-1.008-3.36s-1.624-1.176-2.856-1.176c-1.344,0-2.408.476-3.164,1.4-.784.952-1.148,2.212-1.148,3.808v7.14h-2.296v-14.28h1.988l.308,1.932c1.064-1.4,2.632-2.1,4.704-2.1c1.736,0,3.108.532,4.172,1.568Z"
            fill="#fff" />
        <path id="frame-1597880373-s-path2"
            d="M133.904,401.4h12.18v2.24h-9.744v6.552h8.064v2.24h-8.064v8.568h-2.436v-19.6Zm13.727,8.624c.56-1.092,1.372-1.932,2.408-2.548c1.008-.616,2.184-.924,3.528-.924c1.288,0,2.464.28,3.472.812c1.008.56,1.792,1.344,2.38,2.352.56,1.036.868,2.24.924,3.612c0,.224-.028.532-.056.98h-11.088v.196c.028,1.4.448,2.52,1.288,3.36.812.84,1.876,1.26,3.22,1.26c1.008,0,1.876-.252,2.604-.756s1.204-1.232,1.456-2.156h2.324c-.28,1.456-.98,2.66-2.1,3.584s-2.492,1.372-4.116,1.372c-1.428,0-2.66-.28-3.724-.896s-1.904-1.456-2.492-2.576-.868-2.38-.868-3.836.28-2.716.84-3.836Zm10.332,2.38c-.112-1.204-.588-2.156-1.372-2.828s-1.792-1.008-2.996-1.008c-1.092,0-2.044.364-2.856,1.064-.84.728-1.288,1.652-1.4,2.772h8.624Zm15.724-4.984c1.036.588,1.848,1.428,2.436,2.52.588,1.12.896,2.408.896,3.92c0,1.456-.308,2.716-.896,3.808-.588,1.12-1.4,1.96-2.436,2.576-1.064.616-2.24.924-3.528.924-1.176,0-2.156-.196-2.968-.616-.84-.42-1.484-1.008-1.932-1.736L164.951,421h-1.988v-19.6h2.296v7.616c1.176-1.624,2.828-2.464,4.9-2.464c1.316,0,2.492.308,3.528.868Zm-.336,10.248c.868-.98,1.316-2.24,1.316-3.808c0-1.54-.448-2.8-1.316-3.78s-2.016-1.484-3.416-1.484c-.924,0-1.736.224-2.464.672s-1.26,1.064-1.652,1.848-.588,1.68-.588,2.688c0,1.036.196,1.96.588,2.772s.924,1.428,1.652,1.876s1.54.672,2.464.672c1.4,0,2.548-.476,3.416-1.456Z"
            fill="#fff" />
        <path id="frame-1597880373-s-path3"
            d="M226.904,401.4h3.08l6.944,16.268l6.86-16.268h3.024v19.6h-2.38v-15.456L237.936,421h-2.156l-6.496-15.456v15.456h-2.38v-19.6Zm36.727,17.5v2.1h-1.26c-.924,0-1.568-.168-1.96-.56-.392-.364-.616-.924-.616-1.652-1.12,1.596-2.716,2.38-4.788,2.38-1.596,0-2.884-.364-3.836-1.12-.952-.728-1.428-1.764-1.428-3.052c0-1.428.476-2.52,1.456-3.304.98-.756,2.408-1.148,4.284-1.148h4.2v-.98c0-.924-.336-1.652-.952-2.184-.616-.504-1.484-.784-2.604-.784-1.008,0-1.82.224-2.464.672s-1.036,1.008-1.176,1.736h-2.296c.168-1.4.784-2.492,1.848-3.276s2.464-1.176,4.2-1.176c1.82,0,3.22.448,4.228,1.344s1.512,2.156,1.512,3.808v6.16c0,.7.308,1.036.952,1.036h.7Zm-3.948-4.424h-4.424c-2.128,0-3.192.812-3.192,2.38c0,.728.28,1.288.84,1.708.56.448,1.316.644,2.268.644c1.4,0,2.492-.364,3.304-1.092.784-.728,1.204-1.708,1.204-2.94v-.7Zm12.965-7.756v2.24h-1.148c-1.372,0-2.352.476-2.94,1.372-.588.924-.868,2.044-.868,3.388v7.28h-2.296v-14.28h1.988l.308,2.156c.392-.644.924-1.176,1.596-1.568.644-.392,1.54-.588,2.716-.588h.644Z"
            fill="#fff" />
        <path id="frame-1597880373-s-path4"
            d="M320.308,421l7.476-19.6h2.884l7.448,19.6h-2.604l-2.072-5.292h-8.54L322.828,421h-2.52Zm5.32-7.504h7.084l-3.556-9.436-3.528,9.436Zm25.094-6.076c1.036.588,1.848,1.428,2.436,2.52.588,1.12.896,2.408.896,3.92c0,1.456-.308,2.716-.896,3.808-.588,1.12-1.4,1.96-2.436,2.576-1.064.616-2.24.924-3.528.924-1.176,0-2.156-.196-2.968-.616-.84-.42-1.484-1.008-1.932-1.736v7.784h-2.296v-19.88h1.988l.308,2.296c1.176-1.624,2.828-2.464,4.9-2.464c1.316,0,2.492.308,3.528.868Zm-.336,10.248c.868-.98,1.316-2.24,1.316-3.808c0-1.54-.448-2.8-1.316-3.78s-2.016-1.484-3.416-1.484c-.924,0-1.736.224-2.464.672s-1.26,1.064-1.652,1.848-.588,1.68-.588,2.688c0,1.036.196,1.96.588,2.772s.924,1.428,1.652,1.876s1.54.672,2.464.672c1.4,0,2.548-.476,3.416-1.456Zm13.543-10.948v2.24h-1.148c-1.372,0-2.352.476-2.94,1.372-.588.924-.868,2.044-.868,3.388v7.28h-2.296v-14.28h1.988l.308,2.156c.392-.644.924-1.176,1.596-1.568.644-.392,1.54-.588,2.716-.588h.644Z"
            fill="#fff" />
        <path id="frame-1597880373-s-path5"
            d="M412.904,401.4h3.08l6.944,16.268l6.86-16.268h3.024v19.6h-2.38v-15.456L423.936,421h-2.156l-6.496-15.456v15.456h-2.38v-19.6Zm36.727,17.5v2.1h-1.26c-.924,0-1.568-.168-1.96-.56-.392-.364-.616-.924-.616-1.652-1.12,1.596-2.716,2.38-4.788,2.38-1.596,0-2.884-.364-3.836-1.12-.952-.728-1.428-1.764-1.428-3.052c0-1.428.476-2.52,1.456-3.304.98-.756,2.408-1.148,4.284-1.148h4.2v-.98c0-.924-.336-1.652-.952-2.184-.616-.504-1.484-.784-2.604-.784-1.008,0-1.82.224-2.464.672s-1.036,1.008-1.176,1.736h-2.296c.168-1.4.784-2.492,1.848-3.276s2.464-1.176,4.2-1.176c1.82,0,3.22.448,4.228,1.344s1.512,2.156,1.512,3.808v6.16c0,.7.308,1.036.952,1.036h.7Zm-3.948-4.424h-4.424c-2.128,0-3.192.812-3.192,2.38c0,.728.28,1.288.84,1.708.56.448,1.316.644,2.268.644c1.4,0,2.492-.364,3.304-1.092.784-.728,1.204-1.708,1.204-2.94v-.7Zm6.311-7.756l4.396,11.648l4.256-11.648h2.436l-6.58,16.688c-.336.868-.644,1.512-.896,1.932-.28.448-.588.756-.98.952-.392.224-.924.308-1.568.308h-2.744v-2.1h2.044c.448,0,.784-.028,1.008-.14.224-.084.392-.224.532-.448s.308-.588.532-1.092l.728-1.708-5.6-14.392h2.436Z"
            fill="#fff" />
        <path id="frame-1597880373-s-path6"
            d="M517.896,401.4v14.98c0,1.512-.392,2.66-1.176,3.444s-1.932,1.176-3.444,1.176h-2.548v-2.296h2.24c.868,0,1.512-.196,1.904-.588s.588-1.036.588-1.932v-14.784h2.436Zm15.753,5.32v14.28h-1.988l-.308-1.904c-1.092,1.4-2.604,2.072-4.564,2.072-1.708,0-3.08-.504-4.088-1.568-1.036-1.036-1.54-2.688-1.54-4.928v-7.952h2.296v7.812c0,1.484.308,2.604.952,3.388s1.568,1.148,2.772,1.148c1.288,0,2.324-.448,3.052-1.4.728-.924,1.12-2.184,1.12-3.808v-7.14h2.296Zm14.302,1.4c1.064,1.064,1.596,2.688,1.596,4.928v7.952h-2.296v-7.812c0-1.456-.336-2.576-1.008-3.36s-1.624-1.176-2.856-1.176c-1.344,0-2.408.476-3.164,1.4-.784.952-1.148,2.212-1.148,3.808v7.14h-2.296v-14.28h1.988l.308,1.932c1.064-1.4,2.632-2.1,4.704-2.1c1.736,0,3.108.532,4.172,1.568Z"
            fill="#fff" />
        <path id="frame-1597880373-s-path7"
            d="M604.896,401.4v14.98c0,1.512-.392,2.66-1.176,3.444s-1.932,1.176-3.444,1.176h-2.548v-2.296h2.24c.868,0,1.512-.196,1.904-.588s.588-1.036.588-1.932v-14.784h2.436Zm15.753,5.32v14.28h-1.988l-.308-1.904c-1.092,1.4-2.604,2.072-4.564,2.072-1.708,0-3.08-.504-4.088-1.568-1.036-1.036-1.54-2.688-1.54-4.928v-7.952h2.296v7.812c0,1.484.308,2.604.952,3.388s1.568,1.148,2.772,1.148c1.288,0,2.324-.448,3.052-1.4.728-.924,1.12-2.184,1.12-3.808v-7.14h2.296Zm3.13-5.32h2.296v19.6h-2.296v-19.6Z"
            fill="#fff" />
    </g>
    <g id="mark" opacity="0">
        <circle id="frame-1597880373-s-circle1" r="9" transform="translate(404 190)" fill="#f0a0a7"
            stroke="#161616" stroke-width="2" />
        <line id="frame-1597880373-s-line14" x1="403.5" y1="371" x2="403.5" y2="200" fill="none"
            stroke="#434343" stroke-dasharray="4,4" />
        <g id="label" transform="translate(404.5,166) rotate(15)">
            <g id="frame-1597880373-s-g2" transform="translate(-404.5,-166)">
                <rect id="frame-1597880373-s-rect2" width="93" height="47" rx="23.5" ry="23.5"
                    transform="translate(358 119)" fill="#232323" />
                <text id="frame-1597880373-s-path8" dx="0" dy="0" font-family="&quot;AeonikMedium&quot;, Helvetica"
                    font-size="22" font-weight="400" transform="translate(367 150)"
                    fill="#fff" stroke-width="0">
                    <tspan id="chart-s-tspan1" y="0" font-weight="400" stroke-width="0"><![CDATA[
                         $423k 
                       ]]></tspan>
                </text>
            </g>
        </g>
    </g>
    <g id="indicator"
        style="offset-path:path('M40,349.5C43.5,338.167,52.7,317.6,61.5,326C63.6667,329.166,69.6,330.7,76,311.5C81,292.833,91.399,258.5,100.5,255C107,252.5,115.216,254,117.5,245.5C120.5,234.333,132.5,217.5,146,241C154.5,255,167.864,277.5,175.5,265.5C179,260,186,249,187.5,246C192,237,198.5,224,206.5,241C209.559,247.5,216,260,228,256C230.833,254.667,237.7,249,242.5,237C245.333,228.833,253.3,215.3,262.5,226.5C265.833,231.167,273.6,237.7,278,226.5C279.833,219.667,285,206.4,291,208C294.333,209.5,301.7,211.4,304.5,207C308,201.5,326.9,206.4,330.5,202C332.333,199.833,337.1,189.6,341.5,166C343.333,161.167,346.5,154.5,358.5,164C369.5,168,371.781,139.594,376,159C378.5,170.5,387.5,191.5,400,191.5C425.478,191.5,446.6,98.7,457,105.5C459.667,106.667,466.3,104.8,471.5,88C474.333,81.5,482.6,72.4,493,88C495.667,91.5,501,97.5,507,98C511.5,98,512,95.5,527,113C529.5,115.333,535.9,118.4,541.5,112C544.5,109.167,552.2,108.6,559,129C562.667,137.833,572.176,153.757,576.5,157C580.5,160,589.1,161.1,593.5,153.5C600.737,141,615,115,618.5,109C624.917,98,629.9,69.9,631.5,57.5C634.5,39.5,646,41,649.5,39.5');offset-rotate:0deg">
        <circle id="frame-1597880373-u-indicator" r="10" transform="translate(0,0)" fill="#fff" />
    </g>
    <g id="frame-1597880373-u-axis" transform="translate(.000001 0)">
        <text id="chart-s-text1" dx="0" dy="0" font-family="&quot;AeonikMedium&quot;, Helvetica"
            font-size="19"
            font-weight="400" transform="translate(671.699661 42.316272)" fill="#fff"
            stroke-width="0">
            <tspan id="chart-s-tspan1" y="0" font-weight="400" stroke-width="0"><![CDATA[
             $800k 
           ]]></tspan>
        </text>
        <text id="chart-s-text2" dx="0" dy="0" font-family="&quot;AeonikMedium&quot;, Helvetica"
            font-size="19"
            font-weight="400" transform="translate(676.699661 83.488118)" fill="#fff"
            fill-opacity="0.4" stroke-width="0">
            <tspan id="chart-s-tspan2" y="0" font-weight="400" stroke-width="0"><![CDATA[
           $700k 
           ]]></tspan>
        </text>
        <text id="chart-s-text3" dx="0" dy="0" font-family="&quot;AeonikMedium&quot;, Helvetica"
            font-size="19"
            font-weight="400" transform="translate(676.699661 125.488118)" fill="#fff"
            fill-opacity="0.4" stroke-width="0">
            <tspan id="chart-s-tspan3" y="0" font-weight="400" stroke-width="0"><![CDATA[
           $600k 
           ]]></tspan>
        </text>
        <text id="chart-s-text4" dx="0" dy="0" font-family="&quot;AeonikMedium&quot;, Helvetica"
            font-size="19"
            font-weight="400" transform="translate(676.699661 167.571226)" fill="#fff"
            fill-opacity="0.4" stroke-width="0">
            <tspan id="chart-s-tspan4" y="0" font-weight="400" stroke-width="0"><![CDATA[
           $500k 
           ]]></tspan>
        </text>
        <text id="chart-s-text5" dx="0" dy="0" font-family="&quot;AeonikMedium&quot;, Helvetica"
            font-size="19"
            font-weight="400" transform="translate(676.699661 209.488118)" fill="#fff"
            fill-opacity="0.4" stroke-width="0">
            <tspan id="chart-s-tspan5" y="0" font-weight="400" stroke-width="0"><![CDATA[
           $400k 
           ]]></tspan>
        </text>
        <text id="chart-s-text6" dx="0" dy="0" font-family="&quot;AeonikMedium&quot;, Helvetica"
            font-size="19"
            font-weight="400" transform="translate(676.699661 251.488118)" fill="#fff"
            fill-opacity="0.4" stroke-width="0">
            <tspan id="chart-s-tspan6" y="0" font-weight="400" stroke-width="0"><![CDATA[
           $300k 
           ]]></tspan>
        </text>
        <text id="chart-s-text7" dx="0" dy="0" font-family="&quot;AeonikMedium&quot;, Helvetica"
            font-size="19"
            font-weight="400" transform="translate(676.699661 293.488118)" fill="#fff"
            fill-opacity="0.4" stroke-width="0">
            <tspan id="chart-s-tspan7" y="0" font-weight="400" stroke-width="0"><![CDATA[
           $200k 
           ]]></tspan>
        </text>
        <text id="chart-s-text8" dx="0" dy="0" font-family="&quot;AeonikMedium&quot;, Helvetica"
            font-size="19"
            font-weight="400" transform="translate(676.699661 335.488118)" fill="#fff"
            fill-opacity="0.4" stroke-width="0">
            <tspan id="chart-s-tspan8" y="0" font-weight="400" stroke-width="0"><![CDATA[
           $100k 
           ]]></tspan>
        </text>
    </g>
    <g id="frame-1597880373-u-data">
        <rect id="frame-1597880373-s-rect3" width="245" height="141" rx="15" ry="15"
            transform="translate(0 485)" fill="#161616" />
        <rect id="frame-1597880373-s-rect4" width="245" height="141" rx="15" ry="15"
            transform="translate(265 485)" fill="#161616" />
        <rect id="frame-1597880373-s-rect5" width="245" height="141" rx="15" ry="15"
            transform="translate(530 485)" fill="#161616" />
        <path id="frame-1597880373-s-path17"
            d="M24.22,523l5.34-14h2.06l5.32,14h-1.86l-1.48-3.78h-6.1L26.02,523h-1.8Zm3.8-5.36h5.06l-2.54-6.74-2.52,6.74Zm17.4148,4.52c-.8.64-1.8.96-3,.96-1,0-1.86-.22-2.6-.66-.76-.44-1.34-1.04-1.74-1.84-.42-.8-.62-1.7-.62-2.74c0-1.02.2-1.92.62-2.72.42-.78,1.02-1.38,1.78-1.82s1.62-.66,2.62-.66c1.2,0,2.18.32,2.96.96s1.28,1.52,1.48,2.64h-1.66c-.16-.64-.5-1.16-1-1.56-.52-.38-1.12-.58-1.84-.58-.98,0-1.78.36-2.38,1.04-.6.7-.9,1.6-.9,2.7c0,1.12.3,2.04.9,2.74s1.4,1.04,2.38,1.04c.74,0,1.36-.18,1.88-.58.5-.38.82-.92.98-1.6h1.64c-.22,1.14-.72,2.04-1.5,2.68Zm4.0761-7.86h-1.84v-1.5h1.84v-2.86h1.64v2.86h2.58v1.5h-2.58v6.02c0,.44.08.74.24.92s.46.26.88.26h1.78v1.5h-1.88c-.96,0-1.66-.2-2.06-.64-.4-.42-.6-1.1-.6-2.02v-6.04Zm7.2868-5.14c.2.2.3.46.3.76c0,.32-.1.56-.3.76s-.46.3-.76.3c-.32,0-.56-.1-.76-.3s-.3-.44-.3-.76c0-.3.1-.56.3-.76s.44-.3.76-.3c.3,0,.56.1.76.3Zm-1.58,3.64h1.64v10.2h-1.64v-10.2Zm2.8667,0h1.76l3.08,8.34l3.06-8.34h1.72l-3.82,10.2h-1.98l-3.82-10.2Zm10.6936,2.36c.4-.78.98-1.38,1.72-1.82.72-.44,1.56-.66,2.52-.66.92,0,1.76.2,2.48.58.72.4,1.28.96,1.7,1.68.4.74.62,1.6.66,2.58c0,.16-.02.38-.04.7h-7.92v.14c.02,1,.32,1.8.92,2.4.58.6,1.34.9,2.3.9.72,0,1.34-.18,1.86-.54s.86-.88,1.04-1.54h1.66c-.2,1.04-.7,1.9-1.5,2.56s-1.78.98-2.94.98c-1.02,0-1.9-.2-2.66-.64s-1.36-1.04-1.78-1.84-.62-1.7-.62-2.74.2-1.94.6-2.74Zm7.38,1.7c-.08-.86-.42-1.54-.98-2.02s-1.28-.72-2.14-.72c-.78,0-1.46.26-2.04.76-.6.52-.92,1.18-1,1.98h6.16ZM26.56,542.42c.06.96.44,1.72,1.14,2.28.68.56,1.56.84,2.64.84.96,0,1.72-.2,2.32-.62s.9-1,.9-1.76c0-.54-.18-.98-.5-1.3s-.74-.54-1.26-.7-1.2-.3-2.08-.46c-1.4-.24-2.52-.62-3.34-1.18-.84-.54-1.24-1.42-1.24-2.66c0-.78.2-1.48.6-2.08s.96-1.08,1.68-1.42c.72-.32,1.56-.5,2.5-.5.98,0,1.86.18,2.62.54s1.36.88,1.8,1.52.68,1.38.74,2.22h-1.72c-.12-.8-.48-1.46-1.1-1.96-.64-.48-1.42-.74-2.34-.74-.94,0-1.68.22-2.22.62-.56.4-.82.98-.82,1.7c0,.54.16.96.48,1.26s.72.52,1.24.68c.5.16,1.2.3,2.08.44c1.4.24,2.52.64,3.36,1.2s1.26,1.44,1.26,2.66c0,.8-.22,1.52-.64,2.14-.42.64-1,1.12-1.76,1.46-.76.36-1.62.52-2.58.52-1.1,0-2.06-.18-2.86-.58-.82-.4-1.46-.94-1.9-1.66s-.68-1.54-.72-2.46h1.72Zm19.4884-5.62v10.2h-1.42l-.22-1.36c-.78,1-1.86,1.48-3.26,1.48-1.22,0-2.2-.36-2.92-1.12-.74-.74-1.1-1.92-1.1-3.52v-5.68h1.64v5.58c0,1.06.22,1.86.68,2.42s1.12.82,1.98.82c.92,0,1.66-.32,2.18-1c.52-.66.8-1.56.8-2.72v-5.1h1.64Zm9.8957.5c.74.42,1.32,1.02,1.74,1.8.42.8.64,1.72.64,2.8c0,1.04-.22,1.94-.64,2.72-.42.8-1,1.4-1.74,1.84-.76.44-1.6.66-2.52.66-.84,0-1.54-.14-2.12-.44-.6-.3-1.06-.72-1.38-1.24l-.22,1.56h-1.42v-14h1.64v5.44c.84-1.16,2.02-1.76,3.5-1.76.94,0,1.78.22,2.52.62Zm-.24,7.32c.62-.7.94-1.6.94-2.72c0-1.1-.32-2-.94-2.7s-1.44-1.06-2.44-1.06c-.66,0-1.24.16-1.76.48s-.9.76-1.18,1.32-.42,1.2-.42,1.92c0,.74.14,1.4.42,1.98s.66,1.02,1.18,1.34s1.1.48,1.76.48c1,0,1.82-.34,2.44-1.04Zm5.735-.98c.02.62.28,1.12.8,1.5.52.4,1.18.58,2,.58.72,0,1.3-.14,1.74-.42s.68-.66.68-1.14c0-.4-.12-.7-.32-.92-.22-.2-.5-.36-.84-.44s-.82-.16-1.44-.24c-.88-.1-1.6-.24-2.16-.42-.56-.16-1.02-.44-1.36-.82-.36-.38-.52-.9-.52-1.58c0-.6.16-1.12.5-1.6.34-.46.8-.82,1.4-1.08.58-.26,1.24-.4,1.98-.4c1.2,0,2.16.28,2.92.84s1.18,1.36,1.26,2.4h-1.64c-.08-.52-.34-.96-.78-1.32-.46-.34-1.02-.52-1.7-.52-.7,0-1.26.16-1.68.44-.44.28-.64.66-.64,1.12c0,.36.1.62.3.8.2.2.44.32.76.38.32.08.8.14,1.44.22.88.12,1.62.26,2.2.44.58.2,1.04.5,1.4.9.36.42.54.98.54,1.68c0,.62-.18,1.16-.54,1.62-.36.48-.86.84-1.46,1.08-.62.26-1.3.38-2.04.38-1.34,0-2.42-.3-3.22-.92-.8-.6-1.22-1.46-1.22-2.56h1.64Zm16.3004,2.52c-.8.64-1.8.96-3,.96-1,0-1.86-.22-2.6-.66-.76-.44-1.34-1.04-1.74-1.84-.42-.8-.62-1.7-.62-2.74c0-1.02.2-1.92.62-2.72.42-.78,1.02-1.38,1.78-1.82s1.62-.66,2.62-.66c1.2,0,2.18.32,2.96.96s1.28,1.52,1.48,2.64h-1.66c-.16-.64-.5-1.16-1-1.56-.52-.38-1.12-.58-1.84-.58-.98,0-1.78.36-2.38,1.04-.6.7-.9,1.6-.9,2.7c0,1.12.3,2.04.9,2.74s1.4,1.04,2.38,1.04c.74,0,1.36-.18,1.88-.58.5-.38.82-.92.98-1.6h1.64c-.22,1.14-.72,2.04-1.5,2.68Zm8.5761-9.36v1.6h-.82c-.98,0-1.68.34-2.1.98-.42.66-.62,1.46-.62,2.42v5.2h-1.64v-10.2h1.42l.22,1.54c.28-.46.66-.84,1.14-1.12.46-.28,1.1-.42,1.94-.42h.46Zm3.0797-3.64c.2.2.3.46.3.76c0,.32-.1.56-.3.76s-.46.3-.76.3c-.32,0-.56-.1-.76-.3s-.3-.44-.3-.76c0-.3.1-.56.3-.76s.44-.3.76-.3c.3,0,.56.1.76.3Zm-1.58,3.64h1.64v10.2h-1.64v-10.2Zm11.5467.5c.74.42,1.32,1.02,1.74,1.8.42.8.64,1.72.64,2.8c0,1.04-.22,1.94-.64,2.72-.42.8-1,1.4-1.74,1.84-.76.44-1.6.66-2.52.66-.84,0-1.54-.14-2.12-.44-.6-.3-1.06-.72-1.38-1.24l-.22,1.56h-1.42v-14h1.64v5.44c.84-1.16,2.02-1.76,3.5-1.76.94,0,1.78.22,2.52.62Zm-.24,7.32c.62-.7.94-1.6.94-2.72c0-1.1-.32-2-.94-2.7s-1.44-1.06-2.44-1.06c-.66,0-1.24.16-1.76.48s-.9.76-1.18,1.32-.42,1.2-.42,1.92c0,.74.14,1.4.42,1.98s.66,1.02,1.18,1.34s1.1.48,1.76.48c1,0,1.82-.34,2.44-1.04Zm4.734-5.46c.4-.78.98-1.38,1.72-1.82.72-.44,1.56-.66,2.52-.66.92,0,1.76.2,2.48.58.72.4,1.28.96,1.7,1.68.4.74.62,1.6.66,2.58c0,.16-.02.38-.04.7h-7.92v.14c.02,1,.32,1.8.92,2.4.58.6,1.34.9,2.3.9.72,0,1.34-.18,1.86-.54s.86-.88,1.04-1.54h1.66c-.2,1.04-.7,1.9-1.5,2.56s-1.78.98-2.94.98c-1.02,0-1.9-.2-2.66-.64s-1.36-1.04-1.78-1.84-.62-1.7-.62-2.74.2-1.94.6-2.74Zm7.38,1.7c-.08-.86-.42-1.54-.98-2.02s-1.28-.72-2.14-.72c-.78,0-1.46.26-2.04.76-.6.52-.92,1.18-1,1.98h6.16Zm8.752-4.06v1.6h-.82c-.98,0-1.68.34-2.1.98-.42.66-.62,1.46-.62,2.42v5.2h-1.64v-10.2h1.42l.22,1.54c.28-.46.66-.84,1.14-1.12.46-.28,1.1-.42,1.94-.42h.46Zm2.408,6.84c.02.62.28,1.12.8,1.5.52.4,1.18.58,2,.58.72,0,1.3-.14,1.74-.42s.68-.66.68-1.14c0-.4-.12-.7-.32-.92-.22-.2-.5-.36-.84-.44s-.82-.16-1.44-.24c-.88-.1-1.6-.24-2.16-.42-.56-.16-1.02-.44-1.36-.82-.36-.38-.52-.9-.52-1.58c0-.6.16-1.12.5-1.6.34-.46.8-.82,1.4-1.08.58-.26,1.24-.4,1.98-.4c1.2,0,2.16.28,2.92.84s1.18,1.36,1.26,2.4h-1.64c-.08-.52-.34-.96-.78-1.32-.46-.34-1.02-.52-1.7-.52-.7,0-1.26.16-1.68.44-.44.28-.64.66-.64,1.12c0,.36.1.62.3.8.2.2.44.32.76.38.32.08.8.14,1.44.22.88.12,1.62.26,2.2.44.58.2,1.04.5,1.4.9.36.42.54.98.54,1.68c0,.62-.18,1.16-.54,1.62-.36.48-.86.84-1.46,1.08-.62.26-1.3.38-2.04.38-1.34,0-2.42-.3-3.22-.92-.8-.6-1.22-1.46-1.22-2.56h1.64Z"
            fill="#fff" fill-opacity="0.4" />
        <path id="frame-1597880373-s-path18"
            d="M291.56,518.42c.06.96.44,1.72,1.14,2.28.68.56,1.56.84,2.64.84.96,0,1.72-.2,2.32-.62s.9-1,.9-1.76c0-.54-.18-.98-.5-1.3s-.74-.54-1.26-.7-1.2-.3-2.08-.46c-1.4-.24-2.52-.62-3.34-1.18-.84-.54-1.24-1.42-1.24-2.66c0-.78.2-1.48.6-2.08s.96-1.08,1.68-1.42c.72-.32,1.56-.5,2.5-.5.98,0,1.86.18,2.62.54s1.36.88,1.8,1.52.68,1.38.74,2.22h-1.72c-.12-.8-.48-1.46-1.1-1.96-.64-.48-1.42-.74-2.34-.74-.94,0-1.68.22-2.22.62-.56.4-.82.98-.82,1.7c0,.54.16.96.48,1.26s.72.52,1.24.68c.5.16,1.2.3,2.08.44c1.4.24,2.52.64,3.36,1.2s1.26,1.44,1.26,2.66c0,.8-.22,1.52-.64,2.14-.42.64-1,1.12-1.76,1.46-.76.36-1.62.52-2.58.52-1.1,0-2.06-.18-2.86-.58-.82-.4-1.46-.94-1.9-1.66s-.68-1.54-.72-2.46h1.72Zm18.368-5.12c.74.42,1.32,1.02,1.74,1.8.42.8.64,1.72.64,2.8c0,1.04-.22,1.94-.64,2.72-.42.8-1,1.4-1.74,1.84-.76.44-1.6.66-2.52.66-.84,0-1.54-.14-2.12-.44-.6-.3-1.06-.72-1.38-1.24v5.56h-1.64v-14.2h1.42l.22,1.64c.84-1.16,2.02-1.76,3.5-1.76.94,0,1.78.22,2.52.62Zm-.24,7.32c.62-.7.94-1.6.94-2.72c0-1.1-.32-2-.94-2.7s-1.44-1.06-2.44-1.06c-.66,0-1.24.16-1.76.48s-.9.76-1.18,1.32-.42,1.2-.42,1.92c0,.74.14,1.4.42,1.98s.66,1.02,1.18,1.34s1.1.48,1.76.48c1,0,1.82-.34,2.44-1.04Zm4.735-5.46c.4-.78.98-1.38,1.72-1.82.72-.44,1.56-.66,2.52-.66.92,0,1.76.2,2.48.58.72.4,1.28.96,1.7,1.68.4.74.62,1.6.66,2.58c0,.16-.02.38-.04.7h-7.92v.14c.019,1,.32,1.8.92,2.4.58.6,1.34.9,2.3.9.72,0,1.34-.18,1.86-.54s.86-.88,1.04-1.54h1.66c-.2,1.04-.7,1.9-1.5,2.56s-1.78.98-2.94.98c-1.02,0-1.9-.2-2.66-.64s-1.36-1.04-1.78-1.84-.62-1.7-.62-2.74.2-1.94.6-2.74Zm7.38,1.7c-.08-.86-.42-1.54-.98-2.02s-1.28-.72-2.14-.72c-.78,0-1.46.26-2.04.76-.6.52-.92,1.18-1,1.98h6.16Zm11.551-3.06c.76.76,1.14,1.92,1.14,3.52v5.68h-1.64v-5.58c0-1.04-.24-1.84-.72-2.4s-1.16-.84-2.04-.84c-.96,0-1.72.34-2.26,1-.56.68-.82,1.58-.82,2.72v5.1h-1.64v-10.2h1.42l.22,1.38c.76-1,1.88-1.5,3.36-1.5c1.24,0,2.22.38,2.98,1.12Zm12.911-4.8v14h-1.42l-.22-1.64c-.86,1.18-2.02,1.76-3.5,1.76-.96,0-1.8-.2-2.54-.62-.74-.4-1.32-1-1.74-1.8-.42-.78-.62-1.72-.62-2.8c0-1.02.2-1.92.62-2.72.42-.78,1-1.4,1.76-1.84.74-.44,1.58-.66,2.52-.66.82,0,1.52.16,2.12.46.58.3,1.04.7,1.38,1.22v-5.36h1.64Zm-3.24,12.2c.52-.32.92-.76,1.2-1.32s.42-1.22.42-1.94-.14-1.38-.42-1.96-.68-1.04-1.2-1.36-1.1-.48-1.74-.48c-1.02,0-1.84.36-2.46,1.06s-.92,1.6-.92,2.7c0,1.12.3,2.02.92,2.72s1.44,1.04,2.46,1.04c.64,0,1.22-.14,1.74-.46Zm9.108,5.8l5.86-18h1.56l-5.86,18h-1.56ZM291.56,542.42c.06.96.44,1.72,1.14,2.28.68.56,1.56.84,2.64.84.96,0,1.72-.2,2.32-.62s.9-1,.9-1.76c0-.54-.18-.98-.5-1.3s-.74-.54-1.26-.7-1.2-.3-2.08-.46c-1.4-.24-2.52-.62-3.34-1.18-.84-.54-1.24-1.42-1.24-2.66c0-.78.2-1.48.6-2.08s.96-1.08,1.68-1.42c.72-.32,1.56-.5,2.5-.5.98,0,1.86.18,2.62.54s1.36.88,1.8,1.52.68,1.38.74,2.22h-1.72c-.12-.8-.48-1.46-1.1-1.96-.64-.48-1.42-.74-2.34-.74-.94,0-1.68.22-2.22.62-.56.4-.82.98-.82,1.7c0,.54.16.96.48,1.26s.72.52,1.24.68c.5.16,1.2.3,2.08.44c1.4.24,2.52.64,3.36,1.2s1.26,1.44,1.26,2.66c0,.8-.22,1.52-.64,2.14-.42.64-1,1.12-1.76,1.46-.76.36-1.62.52-2.58.52-1.1,0-2.06-.18-2.86-.58-.82-.4-1.46-.94-1.9-1.66s-.68-1.54-.72-2.46h1.72Zm19.488-5.62v10.2h-1.42l-.22-1.36c-.78,1-1.86,1.48-3.26,1.48-1.22,0-2.2-.36-2.92-1.12-.74-.74-1.1-1.92-1.1-3.52v-5.68h1.64v5.58c0,1.06.22,1.86.68,2.42s1.12.82,1.98.82c.92,0,1.66-.32,2.18-1c.52-.66.8-1.56.8-2.72v-5.1h1.64Zm9.896.5c.74.42,1.32,1.02,1.74,1.8.42.8.64,1.72.64,2.8c0,1.04-.22,1.94-.64,2.72-.42.8-1,1.4-1.74,1.84-.76.44-1.6.66-2.52.66-.84,0-1.54-.14-2.12-.44-.6-.3-1.06-.72-1.38-1.24l-.22,1.56h-1.42v-14h1.64v5.44c.84-1.16,2.02-1.76,3.5-1.76.94,0,1.78.22,2.52.62Zm-.24,7.32c.62-.7.94-1.6.94-2.72c0-1.1-.32-2-.94-2.7s-1.44-1.06-2.44-1.06c-.66,0-1.24.16-1.76.48s-.9.76-1.18,1.32-.42,1.2-.42,1.92c0,.74.14,1.4.42,1.98s.66,1.02,1.18,1.34s1.1.48,1.76.48c1,0,1.82-.34,2.44-1.04Zm5.735-.98c.02.62.28,1.12.8,1.5.52.4,1.18.58,2,.58.72,0,1.3-.14,1.74-.42s.68-.66.68-1.14c0-.4-.12-.7-.32-.92-.22-.2-.5-.36-.84-.44s-.82-.16-1.44-.24c-.88-.1-1.6-.24-2.16-.42-.56-.16-1.02-.44-1.36-.82-.36-.38-.52-.9-.52-1.58c0-.6.16-1.12.5-1.6.34-.46.8-.82,1.4-1.08.58-.26,1.24-.4,1.98-.4c1.2,0,2.16.28,2.92.84s1.18,1.36,1.26,2.4h-1.64c-.08-.52-.34-.96-.78-1.32-.46-.34-1.02-.52-1.7-.52-.7,0-1.26.16-1.68.44-.44.28-.64.66-.64,1.12c0,.36.1.62.3.8.2.2.44.32.76.38.32.08.8.14,1.44.22.88.12,1.62.26,2.2.44.58.2,1.04.5,1.4.9.36.42.54.98.54,1.68c0,.62-.18,1.16-.54,1.62-.36.48-.86.84-1.46,1.08-.62.26-1.3.38-2.04.38-1.34,0-2.42-.3-3.22-.92-.8-.6-1.22-1.46-1.22-2.56h1.64Zm16.301,2.52c-.8.64-1.8.96-3,.96-1,0-1.86-.22-2.6-.66-.76-.44-1.34-1.04-1.74-1.84-.42-.8-.62-1.7-.62-2.74c0-1.02.2-1.92.62-2.72.42-.78,1.02-1.38,1.78-1.82s1.62-.66,2.62-.66c1.2,0,2.18.32,2.96.96s1.28,1.52,1.48,2.64h-1.66c-.16-.64-.5-1.16-1-1.56-.52-.38-1.12-.58-1.84-.58-.98,0-1.78.36-2.38,1.04-.6.7-.9,1.6-.9,2.7c0,1.12.3,2.04.9,2.74s1.4,1.04,2.38,1.04c.74,0,1.36-.18,1.88-.58.5-.38.82-.92.98-1.6h1.64c-.22,1.14-.72,2.04-1.5,2.68Zm8.576-9.36v1.6h-.82c-.98,0-1.68.34-2.1.98-.42.66-.62,1.46-.62,2.42v5.2h-1.64v-10.2h1.42l.22,1.54c.28-.46.66-.84,1.14-1.12.46-.28,1.1-.42,1.94-.42h.46Zm3.079-3.64c.2.2.3.46.3.76c0,.32-.1.56-.3.76s-.46.3-.76.3c-.32,0-.56-.1-.76-.3s-.3-.44-.3-.76c0-.3.1-.56.3-.76s.44-.3.76-.3c.3,0,.56.1.76.3Zm-1.58,3.64h1.64v10.2h-1.64v-10.2Zm11.547.5c.74.42,1.32,1.02,1.74,1.8.42.8.64,1.72.64,2.8c0,1.04-.22,1.94-.64,2.72-.42.8-1,1.4-1.74,1.84-.76.44-1.6.66-2.52.66-.84,0-1.54-.14-2.12-.44-.6-.3-1.06-.72-1.38-1.24l-.22,1.56h-1.42v-14h1.64v5.44c.84-1.16,2.02-1.76,3.5-1.76.94,0,1.78.22,2.52.62Zm-.24,7.32c.62-.7.94-1.6.94-2.72c0-1.1-.32-2-.94-2.7s-1.44-1.06-2.44-1.06c-.66,0-1.24.16-1.76.48s-.9.76-1.18,1.32-.42,1.2-.42,1.92c0,.74.14,1.4.42,1.98s.66,1.02,1.18,1.34s1.1.48,1.76.48c1,0,1.82-.34,2.44-1.04Zm4.734-5.46c.4-.78.98-1.38,1.72-1.82.72-.44,1.56-.66,2.52-.66.92,0,1.76.2,2.48.58.72.4,1.28.96,1.7,1.68.4.74.62,1.6.66,2.58c0,.16-.02.38-.04.7h-7.92v.14c.02,1,.32,1.8.92,2.4.58.6,1.34.9,2.3.9.72,0,1.34-.18,1.86-.54s.86-.88,1.04-1.54h1.66c-.2,1.04-.7,1.9-1.5,2.56s-1.78.98-2.94.98c-1.02,0-1.9-.2-2.66-.64s-1.36-1.04-1.78-1.84-.62-1.7-.62-2.74.2-1.94.6-2.74Zm7.38,1.7c-.08-.86-.42-1.54-.98-2.02s-1.28-.72-2.14-.72c-.78,0-1.46.26-2.04.76-.6.52-.92,1.18-1,1.98h6.16Zm8.752-4.06v1.6h-.82c-.98,0-1.68.34-2.1.98-.42.66-.62,1.46-.62,2.42v5.2h-1.64v-10.2h1.42l.22,1.54c.28-.46.66-.84,1.14-1.12.46-.28,1.1-.42,1.94-.42h.46Z"
            fill="#fff" fill-opacity="0.4" />
        <path id="frame-1597880373-s-path19"
            d="M555.66,512.28c.54-1.08,1.32-1.9,2.34-2.5c1-.6,2.18-.9,3.52-.9c1.54,0,2.84.42,3.88,1.26s1.7,2,1.98,3.44h-1.74c-.26-.96-.76-1.72-1.5-2.28-.74-.54-1.64-.82-2.7-.82-.96,0-1.82.24-2.54.7-.74.48-1.3,1.12-1.7,1.96s-.58,1.78-.58,2.86.18,2.02.58,2.86.96,1.5,1.7,1.96c.72.48,1.58.7,2.54.7c1.08,0,1.98-.26,2.7-.8s1.2-1.3,1.48-2.3h1.74c-.28,1.46-.92,2.6-1.96,3.44s-2.32,1.26-3.88,1.26c-1.34,0-2.52-.28-3.52-.88-1.02-.6-1.8-1.42-2.34-2.5-.56-1.08-.82-2.32-.82-3.74c0-1.4.26-2.64.82-3.72Zm22.439.52v10.2h-1.42l-.22-1.36c-.78,1-1.86,1.48-3.26,1.48-1.22,0-2.2-.36-2.92-1.12-.74-.74-1.1-1.92-1.1-3.52v-5.68h1.64v5.58c0,1.06.22,1.86.68,2.42s1.12.82,1.98.82c.92,0,1.66-.32,2.18-1c.52-.66.8-1.56.8-2.72v-5.1h1.64Zm3.516,6.84c.02.62.28,1.12.8,1.5.52.4,1.18.58,2,.58.72,0,1.3-.14,1.74-.42s.68-.66.68-1.14c0-.4-.12-.7-.32-.92-.22-.2-.5-.36-.84-.44s-.82-.16-1.44-.24c-.88-.1-1.6-.24-2.16-.42-.56-.16-1.02-.44-1.36-.82-.36-.38-.52-.9-.52-1.58c0-.6.16-1.12.5-1.6.34-.46.8-.82,1.4-1.08.58-.26,1.24-.4,1.98-.4c1.2,0,2.16.28,2.92.84s1.18,1.36,1.26,2.4h-1.64c-.08-.52-.34-.96-.78-1.32-.46-.34-1.02-.52-1.7-.52-.7,0-1.26.16-1.68.44-.44.28-.64.66-.64,1.12c0,.36.1.62.3.8.2.2.44.32.76.38.32.08.8.14,1.44.22.88.12,1.62.26,2.2.44.58.2,1.04.5,1.4.9.36.42.54.98.54,1.68c0,.62-.18,1.16-.54,1.62-.36.48-.86.84-1.46,1.08-.62.26-1.3.38-2.04.38-1.34,0-2.42-.3-3.22-.92-.8-.6-1.22-1.46-1.22-2.56h1.64Zm9.38-5.34h-1.84v-1.5h1.84v-2.86h1.64v2.86h2.58v1.5h-2.58v6.02c0,.44.08.74.24.92s.46.26.88.26h1.78v1.5h-1.88c-.96,0-1.66-.2-2.06-.64-.4-.42-.6-1.1-.6-2.02v-6.04Zm7.513,8.16c-.76-.44-1.36-1.04-1.78-1.84-.44-.78-.64-1.68-.64-2.72c0-1.02.2-1.92.64-2.72.42-.78,1.02-1.4,1.78-1.84s1.64-.66,2.64-.66c.98,0,1.86.22,2.62.66s1.36,1.06,1.8,1.84c.42.8.64,1.7.64,2.72c0,1.04-.22,1.94-.64,2.72-.44.8-1.04,1.4-1.8,1.84s-1.64.66-2.62.66c-1,0-1.88-.22-2.64-.66Zm4.4-1.28c.52-.32.92-.76,1.2-1.34.28-.56.42-1.22.42-1.94s-.14-1.36-.42-1.94c-.28-.56-.68-1.02-1.2-1.34s-1.1-.48-1.76-.48c-.68,0-1.26.16-1.78.48s-.9.78-1.18,1.34c-.28.58-.42,1.22-.42,1.94s.14,1.38.42,1.94c.28.58.66,1.02,1.18,1.34s1.1.48,1.78.48c.66,0,1.24-.16,1.76-.48Zm19.341-7.42c.72.72,1.08,1.84,1.08,3.36v5.88h-1.64v-5.78c0-.98-.22-1.74-.64-2.26s-1.02-.78-1.78-.78c-.86,0-1.54.3-2.02.9s-.72,1.42-.72,2.46v5.46h-1.64v-5.78c0-.98-.22-1.74-.64-2.26-.44-.52-1.04-.78-1.82-.78-.84,0-1.5.32-1.98.96s-.72,1.46-.72,2.48v5.38h-1.64v-10.2h1.42l.22,1.4c.72-1,1.72-1.52,2.98-1.52.72,0,1.38.18,1.94.5s1,.8,1.28,1.44c.72-1.28,1.9-1.94,3.54-1.94c1.14,0,2.06.36,2.78,1.08Zm3.424,1.4c.4-.78.98-1.38,1.72-1.82.72-.44,1.56-.66,2.52-.66.92,0,1.76.2,2.48.58.72.4,1.28.96,1.7,1.68.4.74.62,1.6.66,2.58c0,.16-.02.38-.04.7h-7.92v.14c.019,1,.32,1.8.92,2.4.58.6,1.34.9,2.3.9.72,0,1.34-.18,1.86-.54s.86-.88,1.04-1.54h1.66c-.2,1.04-.7,1.9-1.5,2.56s-1.78.98-2.94.98c-1.02,0-1.9-.2-2.66-.64s-1.36-1.04-1.78-1.84-.62-1.7-.62-2.74.2-1.94.6-2.74Zm7.38,1.7c-.08-.86-.42-1.54-.98-2.02s-1.28-.72-2.14-.72c-.78,0-1.46.26-2.04.76-.6.52-.92,1.18-1,1.98h6.16Zm8.751-4.06v1.6h-.82c-.98,0-1.68.34-2.1.98-.42.66-.62,1.46-.62,2.42v5.2h-1.64v-10.2h1.42l.22,1.54c.28-.46.66-.84,1.14-1.12.46-.28,1.1-.42,1.94-.42h.46Zm-81.504,24v1.6h-.82c-.98,0-1.68.34-2.1.98-.42.66-.62,1.46-.62,2.42v5.2h-1.64v-10.2h1.42l.22,1.54c.28-.46.66-.84,1.14-1.12.46-.28,1.1-.42,1.94-.42h.46Zm1.154,2.36c.4-.78.98-1.38,1.72-1.82.72-.44,1.56-.66,2.52-.66.92,0,1.76.2,2.48.58.72.4,1.28.96,1.7,1.68.4.74.62,1.6.66,2.58c0,.16-.02.38-.04.7h-7.92v.14c.02,1,.32,1.8.92,2.4.58.6,1.34.9,2.3.9.72,0,1.34-.18,1.86-.54s.86-.88,1.04-1.54h1.66c-.2,1.04-.7,1.9-1.5,2.56s-1.78.98-2.94.98c-1.02,0-1.9-.2-2.66-.64s-1.36-1.04-1.78-1.84-.62-1.7-.62-2.74.2-1.94.6-2.74Zm7.38,1.7c-.08-.86-.42-1.54-.98-2.02s-1.28-.72-2.14-.72c-.78,0-1.46.26-2.04.76-.6.52-.92,1.18-1,1.98h6.16Zm4.134-2.56h-1.84v-1.5h1.84v-2.86h1.64v2.86h2.58v1.5h-2.58v6.02c0,.44.08.74.24.92s.46.26.88.26h1.78v1.5h-1.88c-.96,0-1.66-.2-2.06-.64-.4-.42-.6-1.1-.6-2.02v-6.04Zm5.693.86c.4-.78.98-1.38,1.72-1.82.72-.44,1.56-.66,2.52-.66.92,0,1.76.2,2.48.58.72.4,1.28.96,1.7,1.68.4.74.62,1.6.66,2.58c0,.16-.02.38-.04.7h-7.92v.14c.02,1,.32,1.8.92,2.4.58.6,1.34.9,2.3.9.72,0,1.34-.18,1.86-.54s.86-.88,1.04-1.54h1.66c-.2,1.04-.7,1.9-1.5,2.56s-1.78.98-2.94.98c-1.02,0-1.9-.2-2.66-.64s-1.36-1.04-1.78-1.84-.62-1.7-.62-2.74.2-1.94.6-2.74Zm7.38,1.7c-.08-.86-.42-1.54-.98-2.02s-1.28-.72-2.14-.72c-.78,0-1.46.26-2.04.76-.6.52-.92,1.18-1,1.98h6.16Zm11.551-3.06c.76.76,1.14,1.92,1.14,3.52v5.68h-1.64v-5.58c0-1.04-.24-1.84-.72-2.4s-1.16-.84-2.04-.84c-.96,0-1.72.34-2.26,1-.56.68-.82,1.58-.82,2.72v5.1h-1.64v-10.2h1.42l.22,1.38c.76-1,1.88-1.5,3.36-1.5c1.24,0,2.22.38,2.98,1.12Zm3.911.5h-1.84v-1.5h1.84v-2.86h1.64v2.86h2.58v1.5h-2.58v6.02c0,.44.08.74.24.92s.46.26.88.26h1.78v1.5h-1.88c-.96,0-1.66-.2-2.06-.64-.4-.42-.6-1.1-.6-2.02v-6.04Zm7.287-5.14c.2.2.3.46.3.76c0,.32-.1.56-.3.76s-.46.3-.76.3c-.32,0-.56-.1-.76-.3s-.3-.44-.3-.76c0-.3.1-.56.3-.76s.44-.3.76-.3c.3,0,.56.1.76.3Zm-1.58,3.64h1.64v10.2h-1.64v-10.2Zm5.947,9.66c-.76-.44-1.36-1.04-1.78-1.84-.44-.78-.64-1.68-.64-2.72c0-1.02.2-1.92.64-2.72.42-.78,1.02-1.4,1.78-1.84s1.64-.66,2.64-.66c.98,0,1.86.22,2.62.66s1.36,1.06,1.8,1.84c.42.8.64,1.7.64,2.72c0,1.04-.22,1.94-.64,2.72-.44.8-1.04,1.4-1.8,1.84s-1.64.66-2.62.66c-1,0-1.88-.22-2.64-.66Zm4.4-1.28c.52-.32.92-.76,1.2-1.34.28-.56.42-1.22.42-1.94s-.14-1.36-.42-1.94c-.28-.56-.68-1.02-1.2-1.34s-1.1-.48-1.76-.48c-.68,0-1.26.16-1.78.48s-.9.78-1.18,1.34c-.28.58-.42,1.22-.42,1.94s.14,1.38.42,1.94c.28.58.66,1.02,1.18,1.34s1.1.48,1.78.48c.66,0,1.24-.16,1.76-.48Zm13.16-7.38c.76.76,1.14,1.92,1.14,3.52v5.68h-1.64v-5.58c0-1.04-.24-1.84-.72-2.4s-1.16-.84-2.04-.84c-.96,0-1.72.34-2.26,1-.56.68-.82,1.58-.82,2.72v5.1h-1.64v-10.2h1.42l.22,1.38c.76-1,1.88-1.5,3.36-1.5c1.24,0,2.22.38,2.98,1.12Z"
            fill="#fff" fill-opacity="0.4" />
        <text dx="0" dy="0"
            font-family="&quot;AeonikMedium&quot;, Helvetica" font-size="35.025" font-weight="400"
            transform="translate(120 605.278944)" fill="#fff" stroke-width="0">
            <tspan y="0" font-weight="400" stroke-width="0"><![CDATA[
     
    ]]></tspan>
            <tspan class="animated-text" data-number-start="14500" data-number-end="21900" y="0"
                font-weight="400" stroke-width="0"><![CDATA[
    0
    ]]></tspan>
            <tspan y="0" font-weight="400" stroke-width="0"><![CDATA[
     
    ]]></tspan>
        </text>
        <text dx="0" dy="0" font-family="&quot;AeonikMedium&quot;, Helvetica" font-size="35.025"
            font-weight="400" transform="translate(380 605.278944)" fill="#fff" stroke-width="0">
            <tspan y="0" font-weight="400" stroke-width="0"><![CDATA[
     $
    ]]></tspan>
            <tspan class="animated-text" data-number-start="10.5" data-number-end="15.48" y="0"
                font-weight="400" stroke-width="0"><![CDATA[
    0
    ]]></tspan>
            <tspan y="0" font-weight="400" stroke-width="0"><![CDATA[
     
    ]]></tspan>
        </text>
        <text dx="0" dy="0" font-family="&quot;AeonikMedium&quot;, Helvetica" font-size="35.025"
            font-weight="400" transform="translate(640 605.296944)" fill="#fff" stroke-width="0">
            <tspan y="0" font-weight="400" stroke-width="0"><![CDATA[
     +
    ]]></tspan>
            <tspan class="animated-text" data-number-start="12" data-number-end="87" y="0"
                font-weight="400" stroke-width="0"><![CDATA[
    0
    ]]></tspan>
            <tspan y="0" font-weight="400" stroke-width="0"><![CDATA[
     %
    ]]></tspan>
        </text>
    </g>
</svg>