<svg width="24" height="24" viewBox="0 0 24 24" fill="none" xmlns="http://www.w3.org/2000/svg">
<path d="M9.71019 11.29C9.52188 11.1017 9.26649 10.9959 9.00019 10.9959C8.73388 10.9959 8.47849 11.1017 8.29019 11.29C8.10188 11.4783 7.99609 11.7337 7.99609 12C7.99609 12.2663 8.10188 12.5217 8.29019 12.71L11.2902 15.71C11.3836 15.8027 11.4944 15.876 11.6163 15.9258C11.7381 15.9755 11.8686 16.0008 12.0002 16C12.1371 15.9957 12.2716 15.9632 12.3955 15.9047C12.5193 15.8463 12.6299 15.763 12.7202 15.66L19.7202 7.65999C19.8818 7.45932 19.9597 7.204 19.9377 6.94728C19.9157 6.69055 19.7955 6.45223 19.602 6.282C19.4086 6.11178 19.1569 6.02279 18.8995 6.0336C18.642 6.0444 18.3987 6.15416 18.2202 6.33999L12.0002 13.54L9.71019 11.29Z" fill="white"/>
<path d="M21.0027 11C20.7375 11 20.4832 11.1054 20.2956 11.2929C20.1081 11.4804 20.0027 11.7348 20.0027 12C20.0027 14.1217 19.1599 16.1566 17.6596 17.6569C16.1593 19.1571 14.1245 20 12.0027 20C10.4228 19.9993 8.87851 19.5308 7.56451 18.6535C6.2505 17.7763 5.22567 16.5297 4.61922 15.0708C4.01278 13.6119 3.85189 12.0061 4.15683 10.4559C4.46178 8.90569 5.2189 7.48048 6.33274 6.36C7.07345 5.60938 7.95642 5.01404 8.93 4.60881C9.90358 4.20358 10.9482 3.99661 12.0027 4C12.6422 4.004 13.2793 4.07777 13.9027 4.22C14.0332 4.26035 14.1706 4.27356 14.3063 4.2588C14.4421 4.24404 14.5734 4.20163 14.6921 4.13418C14.8109 4.06673 14.9146 3.97567 14.9968 3.86662C15.079 3.75757 15.138 3.63284 15.1701 3.50011C15.2023 3.36739 15.2069 3.22948 15.1837 3.0949C15.1605 2.96032 15.11 2.83191 15.0353 2.71759C14.9606 2.60327 14.8633 2.50547 14.7493 2.43021C14.6354 2.35495 14.5072 2.30383 14.3727 2.28C13.5959 2.09724 12.8008 2.00331 12.0027 2C10.0271 2.01026 8.09873 2.60552 6.46104 3.71065C4.82335 4.81578 3.54971 6.38126 2.80086 8.20953C2.05201 10.0378 1.8615 12.0469 2.25338 13.9834C2.64525 15.9198 3.60195 17.6968 5.00274 19.09C6.85943 20.9475 9.37639 21.9939 12.0027 22C14.6549 22 17.1984 20.9464 19.0738 19.0711C20.9492 17.1957 22.0027 14.6522 22.0027 12C22.0027 11.7348 21.8974 11.4804 21.7099 11.2929C21.5223 11.1054 21.268 11 21.0027 11Z" fill="white"/>
</svg>
