<svg width="20" height="20" viewBox="0 0 20 20" fill="none" xmlns="http://www.w3.org/2000/svg">
<path d="M18.125 8.75V14.25C18.125 17.0114 15.8864 19.25 13.125 19.25H6.875C4.11358 19.25 1.875 17.0114 1.875 14.25V8.75" stroke="black" stroke-width="1.5" stroke-linecap="round"/>
<path d="M7.5 16.75C7.5 15.3693 8.61929 14.25 10 14.25V14.25C11.3807 14.25 12.5 15.3693 12.5 16.75V19.25H7.5V16.75Z" stroke="black" stroke-width="1.5"/>
<path d="M1.24673 2.96613C1.39103 1.70347 2.45968 0.75 3.73056 0.75H8.12512L7.26843 6.74683C7.04275 8.32659 5.6898 9.5 4.094 9.5V9.5C2.17878 9.5 0.69062 7.83208 0.908087 5.92924L1.24673 2.96613Z" stroke="black" stroke-width="1.5"/>
<path d="M8.125 0.75H11.875L12.6831 6.40641C12.9163 8.03918 11.6494 9.5 10 9.5V9.5C8.35065 9.5 7.08369 8.03918 7.31694 6.40641L8.125 0.75Z" stroke="black" stroke-width="1.5"/>
<path d="M11.875 0.75H16.2694C17.5403 0.75 18.609 1.70347 18.7533 2.96613L19.0919 5.92931C19.3094 7.83211 17.8213 9.5 15.9061 9.5V9.5C14.3103 9.5 12.9574 8.32661 12.7317 6.74689L11.875 0.75Z" stroke="black" stroke-width="1.5"/>
</svg>
