<svg width="469" height="84" viewBox="0 0 469 84" fill="none" xmlns="http://www.w3.org/2000/svg">
<path d="M44.5885 40.6927C44.5885 33.9386 50.0638 28.4633 56.818 28.4633C63.5721 28.4633 69.0474 33.9386 69.0474 40.6927V71.2663C69.0474 78.0204 63.5721 83.4957 56.818 83.4957C50.0638 83.4957 44.5885 78.0204 44.5885 71.2663V40.6927Z" fill="url(#paint0_linear_4009_7531)"/>
<path d="M44.5885 40.6927C44.5885 33.9386 50.0638 28.4633 56.818 28.4633C63.5721 28.4633 69.0474 33.9386 69.0474 40.6927V71.2663C69.0474 78.0204 63.5721 83.4957 56.818 83.4957C50.0638 83.4957 44.5885 78.0204 44.5885 71.2663V40.6927Z" fill="url(#paint1_linear_4009_7531)"/>
<path d="M75.1621 40.6927C75.1621 33.9386 80.6374 28.4633 87.3915 28.4633C94.1456 28.4633 99.6209 33.9386 99.6209 40.6927V71.2663C99.6209 78.0204 94.1456 83.4957 87.3915 83.4957C80.6374 83.4957 75.1621 78.0204 75.1621 71.2663V40.6927Z" fill="url(#paint2_linear_4009_7531)"/>
<path d="M75.1621 40.6927C75.1621 33.9386 80.6374 28.4633 87.3915 28.4633C94.1456 28.4633 99.6209 33.9386 99.6209 40.6927V71.2663C99.6209 78.0204 94.1456 83.4957 87.3915 83.4957C80.6374 83.4957 75.1621 78.0204 75.1621 71.2663V40.6927Z" fill="url(#paint3_linear_4009_7531)"/>
<path d="M116.675 9.86385C117.983 3.23755 124.415 -1.074 131.041 0.233753C137.667 1.5415 141.979 7.97333 140.671 14.5996L129.043 73.5193C127.735 80.1456 121.303 84.4572 114.677 83.1494C108.051 81.8417 103.739 75.4099 105.047 68.7835L116.675 9.86385Z" fill="url(#paint4_linear_4009_7531)"/>
<path d="M116.675 9.86385C117.983 3.23755 124.415 -1.074 131.041 0.233753C137.667 1.5415 141.979 7.97333 140.671 14.5996L129.043 73.5193C127.735 80.1456 121.303 84.4572 114.677 83.1494C108.051 81.8417 103.739 75.4099 105.047 68.7835L116.675 9.86385Z" fill="url(#paint5_linear_4009_7531)"/>
<path d="M0.767169 35.3137C-1.58244 28.9815 1.64614 21.9434 7.9784 19.5938C14.3107 17.2442 21.3487 20.4728 23.6983 26.8051L38.2179 65.9358C40.5675 72.2681 37.3389 79.3061 31.0067 81.6557C24.6744 84.0053 17.6364 80.7767 15.2867 74.4445L0.767169 35.3137Z" fill="url(#paint6_linear_4009_7531)"/>
<path d="M0.767169 35.3137C-1.58244 28.9815 1.64614 21.9434 7.9784 19.5938C14.3107 17.2442 21.3487 20.4728 23.6983 26.8051L38.2179 65.9358C40.5675 72.2681 37.3389 79.3061 31.0067 81.6557C24.6744 84.0053 17.6364 80.7767 15.2867 74.4445L0.767169 35.3137Z" fill="url(#paint7_linear_4009_7531)"/>
<path d="M177.593 64.6476H191.65C192.174 69.3681 196.265 72.62 203.503 72.62C209.692 72.62 213.469 70.6269 213.469 66.8505C213.469 62.4447 209.797 62.13 201.091 60.9761C188.503 59.5075 178.747 56.6752 178.747 45.5559C178.747 34.8561 188.083 27.8278 201.93 27.9327C216.406 27.9327 226.371 34.3316 227.106 45.3461H212.944C212.525 41.0452 208.434 38.4227 202.454 38.4227C196.685 38.4227 192.908 40.5207 192.908 43.9824C192.908 48.0735 197.524 48.4931 205.287 49.4372C217.665 50.696 227.945 53.5283 227.945 65.6966C227.945 76.3964 217.875 83.2149 203.398 83.2149C188.398 83.2149 178.222 76.1866 177.593 64.6476Z" fill="white"/>
<path d="M262.591 28.0376C274.549 28.0376 285.771 34.7115 288.291 52.6891L293.203 83.2141L278.927 83.3356L274.009 53.9332C272.37 45.0039 270.143 40.8207 262.591 40.8207C255.038 40.8207 249.424 45.451 251.063 55.5119L255.98 83.2149H241.516L227.945 9.15564H241.516L246.145 35.8432C249.424 30.4929 254.933 28.0376 262.591 28.0376Z" fill="white"/>
<path d="M349.012 70.1024H350.69V82.5855H343.137C335.479 82.5855 333.067 78.914 333.172 73.7739C329.395 79.7532 323.941 83.2149 315.549 83.2149C303.905 83.2149 295.513 77.6552 295.513 67.375C295.513 55.941 304.114 49.4372 320.269 49.4372H330.969V46.8147C330.969 41.9893 327.507 38.8423 321.318 38.8423C315.549 38.8423 311.667 41.4648 311.038 45.451H296.771C297.82 34.961 307.471 28.0376 321.738 28.0376C336.843 28.0376 345.55 34.7512 345.55 47.6539V66.7456C345.55 69.5779 346.704 70.1024 349.012 70.1024ZM330.969 60.3467V59.2977H320.164C313.975 59.2977 310.408 61.8153 310.408 66.326C310.408 70.1024 313.451 72.5151 318.381 72.5151C326.143 72.5151 330.864 67.6897 330.969 60.3467Z" fill="white"/>
<path d="M351.691 82.5855L364.594 9.15564H379.385L371.832 51.2205L396.484 28.667H414.526L390.504 50.696L404.98 82.5855H389.141L379.28 60.4516L368.79 69.8926L366.482 82.5855H351.691Z" fill="white"/>
<path d="M466.409 70.1024H468.088V82.5855H460.535C452.877 82.5855 450.464 78.914 450.569 73.7739C446.793 79.7532 441.338 83.2149 432.946 83.2149C421.302 83.2149 412.91 77.6552 412.91 67.375C412.91 55.941 421.512 49.4372 437.667 49.4372H448.366V46.8147C448.366 41.9893 444.905 38.8423 438.716 38.8423C432.946 38.8423 429.065 41.4648 428.435 45.451H414.169C415.218 34.961 424.869 28.0376 439.135 28.0376C454.241 28.0376 462.947 34.7512 462.947 47.6539V66.7456C462.947 69.5779 464.101 70.1024 466.409 70.1024ZM448.366 60.3467V59.2977H437.562C431.373 59.2977 427.806 61.8153 427.806 66.326C427.806 70.1024 430.848 72.5151 435.778 72.5151C443.541 72.5151 448.262 67.6897 448.366 60.3467Z" fill="white"/>
<defs>
<linearGradient id="paint0_linear_4009_7531" x1="7.97828" y1="19.5939" x2="105.5" y2="42" gradientUnits="userSpaceOnUse">
<stop stop-color="#E08EA3"/>
<stop offset="1" stop-color="#987DCE"/>
</linearGradient>
<linearGradient id="paint1_linear_4009_7531" x1="7.97828" y1="19.5939" x2="141" y2="52.5" gradientUnits="userSpaceOnUse">
<stop offset="0.265155" stop-color="#F19DE8"/>
<stop offset="0.760189" stop-color="#987DCE"/>
</linearGradient>
<linearGradient id="paint2_linear_4009_7531" x1="7.97828" y1="19.5939" x2="105.5" y2="42" gradientUnits="userSpaceOnUse">
<stop stop-color="#E08EA3"/>
<stop offset="1" stop-color="#987DCE"/>
</linearGradient>
<linearGradient id="paint3_linear_4009_7531" x1="7.97828" y1="19.5939" x2="141" y2="52.5" gradientUnits="userSpaceOnUse">
<stop offset="0.265155" stop-color="#F19DE8"/>
<stop offset="0.760189" stop-color="#987DCE"/>
</linearGradient>
<linearGradient id="paint4_linear_4009_7531" x1="7.97828" y1="19.5939" x2="105.5" y2="42" gradientUnits="userSpaceOnUse">
<stop stop-color="#E08EA3"/>
<stop offset="1" stop-color="#987DCE"/>
</linearGradient>
<linearGradient id="paint5_linear_4009_7531" x1="7.97828" y1="19.5939" x2="141" y2="52.5" gradientUnits="userSpaceOnUse">
<stop offset="0.265155" stop-color="#F19DE8"/>
<stop offset="0.760189" stop-color="#987DCE"/>
</linearGradient>
<linearGradient id="paint6_linear_4009_7531" x1="7.97828" y1="19.5939" x2="105.5" y2="42" gradientUnits="userSpaceOnUse">
<stop stop-color="#E08EA3"/>
<stop offset="1" stop-color="#987DCE"/>
</linearGradient>
<linearGradient id="paint7_linear_4009_7531" x1="7.97828" y1="19.5939" x2="141" y2="52.5" gradientUnits="userSpaceOnUse">
<stop offset="0.265155" stop-color="#F19DE8"/>
<stop offset="0.760189" stop-color="#987DCE"/>
</linearGradient>
</defs>
</svg>
